<?xml version="1.0" encoding="utf-8"?>
<!-- Generator: Adobe Illustrator 28.0.0, SVG Export Plug-In . SVG Version: 6.00 Build 0)  -->
<svg version="1.1" id="Layer_1" xmlns="http://www.w3.org/2000/svg" xmlns:xlink="http://www.w3.org/1999/xlink" x="0px" y="0px"
	 viewBox="0 0 1920 673.8" style="enable-background:new 0 0 1920 673.8;" xml:space="preserve">
<style type="text/css">
	.st0{fill:#E2D6D9;}
	.st1{fill:#231F20;}
	.st2{fill:#9FB749;}
	.st3{clip-path:url(#SVGID_00000032637391782994475600000002817738633746248105_);}
	.st4{clip-path:url(#SVGID_00000022556595273163713620000013877765077924454053_);}
	.st5{clip-path:url(#SVGID_00000153664509114761997890000013117902553382232738_);}
	.st6{fill:#A0B847;}
</style>
<g>
	<rect y="95.7" class="st0" width="1920" height="578.1"/>
	<g>
		<path class="st1" d="M186.9,442.9v1.4c-1.5,0-2.6,0.2-3.3,0.5s-1.2,0.9-1.5,1.7c-0.2,0.8-0.4,2.1-0.4,3.8v34.9
			c0,1.7,0.1,3,0.4,3.8s0.8,1.4,1.5,1.7s1.8,0.5,3.3,0.6v1.4c-1.3-0.1-3-0.1-5-0.2c-2,0-4.1,0-6.2,0c-2.4,0-4.6,0-6.8,0
			c-2.1,0-3.8,0.1-5.1,0.2v-1.4c1.4-0.1,2.6-0.3,3.3-0.6c0.7-0.3,1.2-0.8,1.5-1.7c0.3-0.8,0.4-2.1,0.4-3.8v-34.9
			c0-1.7-0.1-3-0.4-3.8c-0.3-0.8-0.8-1.4-1.5-1.7c-0.7-0.3-1.8-0.5-3.3-0.5v-1.4c1.3,0,3,0.1,5.1,0.1c2.1,0,4.4,0.1,6.8,0.1
			c2.1,0,4.1,0,6.2-0.1C183.9,443,185.6,442.9,186.9,442.9L186.9,442.9z"/>
		<path class="st1" d="M216.3,493.2c-2.2,0-3.9-0.4-5.4-1.2s-2.4-1.9-3.1-3.3s-1-2.8-1-4.4c0-2,0.5-3.6,1.4-4.9
			c0.9-1.3,2.1-2.3,3.6-3.1c1.4-0.8,3-1.4,4.6-1.9c1.6-0.5,3.1-1,4.6-1.5c1.4-0.5,2.6-1.1,3.5-1.8c0.9-0.7,1.3-1.6,1.3-2.6v-5.8
			c0-1-0.1-2-0.5-2.9c-0.3-0.9-0.9-1.7-1.6-2.2c-0.8-0.6-1.8-0.9-3.2-0.9c-0.8,0-1.7,0.1-2.5,0.4c-0.8,0.2-1.5,0.6-2.1,1.1
			c1.5,0.5,2.6,1.3,3.3,2.3c0.7,1,1.1,2.2,1.1,3.5c0,1.7-0.6,3.1-1.8,4.1s-2.6,1.5-4.3,1.5c-1.8,0-3.2-0.6-4.1-1.7
			c-1-1.1-1.4-2.5-1.4-4.1c0-1.4,0.4-2.6,1.1-3.5s1.7-1.8,3.1-2.6c1.4-0.8,3-1.4,4.9-1.8c1.9-0.4,4-0.6,6.1-0.6s4.2,0.2,6.1,0.7
			c1.9,0.5,3.4,1.3,4.8,2.6c1,1.1,1.7,2.4,2,3.9s0.4,3.5,0.4,5.9v19c0,1.2,0.1,2,0.3,2.4c0.2,0.5,0.6,0.7,1,0.7
			c0.4,0,0.8-0.1,1.2-0.4c0.4-0.2,0.8-0.5,1.1-0.8l0.8,1.2c-1,0.8-2.2,1.5-3.7,1.9s-2.9,0.7-4.6,0.7c-1.9,0-3.3-0.2-4.4-0.7
			s-1.8-1.2-2.2-2c-0.4-0.8-0.7-1.8-0.7-2.8c-1,1.7-2.3,3-3.9,4C220.6,492.7,218.7,493.2,216.3,493.2L216.3,493.2z M222.1,488.1
			c0.8,0,1.4-0.1,2-0.5c0.6-0.3,1.1-0.8,1.6-1.6v-14.6c-0.4,0.7-0.9,1.3-1.5,1.9c-0.6,0.6-1.3,1.2-2,1.8s-1.4,1.2-2,1.9
			c-0.6,0.7-1.1,1.5-1.6,2.5c-0.4,1-0.6,2.1-0.6,3.5c0,1.8,0.4,3.1,1.1,3.9S221,488.2,222.1,488.1L222.1,488.1z"/>
		<path class="st1" d="M270,455.3c2,0,3.6,0.3,4.9,0.8c1.2,0.5,2.2,1.2,2.9,2c0.8,0.9,1.3,2,1.6,3.5c0.3,1.4,0.5,3.3,0.5,5.7v19
			c0,2,0.3,3.3,0.8,4s1.5,1.1,2.9,1.1v1.5c-0.9,0-2.2-0.1-3.9-0.2c-1.7-0.1-3.4-0.1-5.1-0.1c-1.8,0-3.5,0-5.2,0.1
			c-1.7,0.1-3,0.1-3.8,0.2v-1.5c1.1,0,1.8-0.4,2.3-1.1c0.5-0.7,0.7-2,0.7-4v-22.4c0-1.1-0.1-2-0.3-2.8s-0.5-1.4-1-1.8
			c-0.5-0.4-1.1-0.6-2-0.6c-1,0-2,0.3-2.9,0.8c-0.9,0.6-1.6,1.4-2.2,2.4c-0.5,1-0.8,2.1-0.8,3.4v20.9c0,2,0.2,3.3,0.6,4
			s1.2,1.1,2.3,1.1v1.5c-0.8,0-2-0.1-3.6-0.2c-1.6-0.1-3.2-0.1-4.9-0.1c-1.9,0-3.9,0-5.8,0.1c-1.9,0.1-3.4,0.1-4.4,0.2v-1.5
			c1.6,0,2.6-0.4,3.3-1.1c0.6-0.7,0.9-2,0.9-4v-22.2c0-2.1-0.3-3.7-0.9-4.7c-0.6-1-1.7-1.5-3.3-1.5v-1.5c1.5,0.1,3,0.2,4.4,0.2
			c2.1,0,4.1-0.1,6-0.2c1.9-0.2,3.6-0.4,5.2-0.7v5.7c1.1-2.1,2.5-3.6,4.4-4.5C265.5,455.7,267.6,455.2,270,455.3L270,455.3z
			 M291.1,455.3c2,0,3.6,0.3,4.9,0.8c1.2,0.5,2.2,1.2,2.9,2c0.8,0.9,1.3,2,1.6,3.5c0.3,1.4,0.5,3.3,0.5,5.7v19c0,2,0.3,3.3,1,4
			s1.7,1.1,3.3,1.1v1.5c-0.9,0-2.3-0.1-4.2-0.2s-3.6-0.1-5.4-0.1s-3.5,0-5.2,0.1c-1.7,0.1-3,0.1-3.8,0.2v-1.5c1.1,0,1.8-0.4,2.3-1.1
			c0.5-0.7,0.7-2,0.7-4v-22.4c0-1.1-0.1-2-0.4-2.8c-0.2-0.8-0.6-1.4-1.2-1.8c-0.5-0.4-1.3-0.6-2.4-0.6s-2,0.3-2.9,1
			s-1.6,1.5-2.2,2.5c-0.5,1-0.9,2.2-1,3.5l-0.4-3.5c1.3-2.6,2.9-4.4,5-5.4C286.4,455.7,288.7,455.3,291.1,455.3L291.1,455.3z"/>
		<path class="st1" d="M333.3,493.2c-2.2,0-3.9-0.4-5.4-1.2s-2.4-1.9-3.1-3.3s-1-2.8-1-4.4c0-2,0.5-3.6,1.4-4.9
			c0.9-1.3,2.1-2.3,3.6-3.1c1.5-0.8,3-1.4,4.6-1.9c1.6-0.5,3.1-1,4.6-1.5c1.5-0.5,2.6-1.1,3.5-1.8c0.9-0.7,1.3-1.6,1.3-2.6v-5.8
			c0-1-0.1-2-0.5-2.9c-0.3-0.9-0.9-1.7-1.6-2.2c-0.8-0.6-1.8-0.9-3.2-0.9c-0.8,0-1.7,0.1-2.5,0.4c-0.8,0.2-1.5,0.6-2.1,1.1
			c1.5,0.5,2.6,1.3,3.3,2.3c0.7,1,1.1,2.2,1.1,3.5c0,1.7-0.6,3.1-1.8,4.1c-1.2,1-2.6,1.5-4.3,1.5c-1.8,0-3.2-0.6-4.1-1.7
			s-1.4-2.5-1.4-4.1c0-1.4,0.4-2.6,1.1-3.5s1.7-1.8,3.1-2.6c1.4-0.8,3-1.4,4.9-1.8c1.9-0.4,4-0.6,6.1-0.6s4.2,0.2,6.1,0.7
			c1.9,0.5,3.4,1.3,4.8,2.6c1,1.1,1.7,2.4,2,3.9s0.4,3.5,0.4,5.9v19c0,1.2,0.1,2,0.3,2.4c0.2,0.5,0.5,0.7,1,0.7
			c0.4,0,0.8-0.1,1.2-0.4s0.8-0.5,1.1-0.8l0.8,1.2c-1,0.8-2.2,1.5-3.7,1.9s-2.9,0.7-4.6,0.7c-1.9,0-3.3-0.2-4.4-0.7s-1.8-1.2-2.2-2
			c-0.5-0.8-0.7-1.8-0.7-2.8c-1,1.7-2.3,3-3.9,4C337.6,492.7,335.7,493.2,333.3,493.2L333.3,493.2z M339.1,488.1
			c0.8,0,1.4-0.1,2-0.5c0.6-0.3,1.1-0.8,1.6-1.6v-14.6c-0.4,0.7-0.9,1.3-1.5,1.9s-1.3,1.2-2,1.8s-1.4,1.2-2,1.9
			c-0.6,0.7-1.1,1.5-1.5,2.5s-0.6,2.1-0.6,3.5c0,1.8,0.4,3.1,1.1,3.9S338,488.2,339.1,488.1L339.1,488.1z"/>
	</g>
	<g>
		<path class="st2" d="M177.2,590.4c-3.2,0-5.9-0.2-8.3-0.7s-4.1-1.2-5.4-2.1s-1.9-2-1.9-3.3s0.7-2.5,2-3.7s3.4-2,6.3-2.7l0.7,1.1
			c-0.8,0.9-1.3,1.7-1.5,2.4c-0.3,0.7-0.4,1.4-0.4,2.1c0,1.8,0.8,3.2,2.5,4.3s4,1.5,7,1.5c2.1,0,3.9-0.3,5.3-0.9
			c1.4-0.6,2.5-1.4,3.2-2.4c0.7-1,1.1-2.2,1.1-3.5s-0.5-2.4-1.5-3.4c-1-0.9-3-1.4-6-1.4h-3.8c-2.2,0-4-0.3-5.4-0.8
			c-1.5-0.6-2.6-1.3-3.3-2.4s-1.1-2.2-1.1-3.5c0-2.2,0.9-4.1,2.6-5.6c1.7-1.5,4-2.8,6.7-4l0.6,0.6c-0.5,0.3-1,0.7-1.5,1.2
			c-0.5,0.5-0.8,1.2-0.8,2c0,1.5,0.9,2.2,2.5,2.2h6.8c3.1,0,5.7,0.3,8,1s4.1,1.7,5.4,3.2c1.3,1.5,1.9,3.4,1.9,5.8s-0.8,4.5-2.3,6.5
			c-1.5,2-3.9,3.6-7.1,4.8C186.5,589.9,182.3,590.4,177.2,590.4L177.2,590.4z M178.2,562.2c-2.9,0-5.5-0.4-7.8-1.2s-4.1-2-5.4-3.7
			c-1.3-1.7-2-3.8-2-6.4s0.7-4.7,2-6.4c1.3-1.7,3.1-2.9,5.4-3.7s4.9-1.2,7.8-1.2s5.5,0.4,7.8,1.2s4.1,2,5.4,3.7c1.3,1.7,2,3.8,2,6.4
			s-0.7,4.7-2,6.4c-1.3,1.7-3.1,2.9-5.4,3.7S181.1,562.2,178.2,562.2z M178.2,560.9c0.9,0,1.6-0.7,2.1-2.2c0.5-1.5,0.8-4.1,0.8-7.8
			s-0.3-6.4-0.8-7.8c-0.5-1.5-1.2-2.2-2.1-2.2s-1.6,0.7-2.1,2.2c-0.5,1.5-0.8,4.1-0.8,7.8s0.3,6.4,0.8,7.8
			C176.6,560.2,177.3,560.9,178.2,560.9z M189.7,545.9l-1.5-0.5c0.8-2,1.9-3.6,3.5-4.8c1.6-1.2,3.3-1.8,5.2-1.8
			c1.6,0,2.9,0.5,3.7,1.3s1.2,2,1.2,3.3s-0.4,2.4-1.1,3.2s-1.6,1.1-2.6,1.1c-0.9,0-1.7-0.3-2.4-0.9c-0.7-0.6-1.1-1.5-1.2-2.8
			c-0.1-1.2,0.4-2.8,1.3-4.7l0.3,0.5c-1.6,0.6-2.9,1.4-3.9,2.2S190.4,544.3,189.7,545.9L189.7,545.9z"/>
		<path class="st2" d="M229,539.7c1.7,0,3,0.4,3.9,1.1c0.9,0.7,1.6,1.6,2,2.8c0.4,1.1,0.6,2.2,0.6,3.3c0,2.1-0.6,3.8-1.8,5
			c-1.2,1.2-2.8,1.9-4.7,1.9c-2.1,0-3.6-0.5-4.7-1.4c-1.1-0.9-1.6-2.2-1.6-3.7c0-1.6,0.3-2.9,1-3.9c0.7-1,1.5-1.9,2.6-2.6
			c-0.8,0-1.6,0.2-2.2,0.5c-0.6,0.2-1.1,0.6-1.6,1c-0.5,0.4-1,0.9-1.3,1.4c-0.4,0.5-0.7,1.1-0.9,1.8c-0.2,0.7-0.3,1.3-0.3,2v21.1
			c0,2.2,0.5,3.8,1.4,4.6s2.5,1.2,4.6,1.2v1.5c-1.1,0-2.7-0.1-4.8-0.2c-2.1-0.1-4.3-0.1-6.6-0.1c-2.1,0-4.2,0-6.4,0.1
			s-3.8,0.1-4.9,0.2v-1.5c1.4,0,2.5-0.3,3.1-1.1c0.6-0.7,0.9-2,0.9-4v-22.3c0-2.1-0.3-3.7-0.8-4.7s-1.6-1.5-3.1-1.5v-1.5
			c1.5,0.1,3,0.2,4.4,0.2c2.4,0,4.5-0.1,6.6-0.2c2-0.2,3.9-0.4,5.7-0.7v5.1c0.6-1.2,1.4-2.2,2.2-3s1.9-1.3,3.1-1.7
			C226.3,539.9,227.6,539.7,229,539.7L229,539.7z"/>
		<path class="st2" d="M246.6,577.7c-2.2,0-4-0.4-5.4-1.3c-1.4-0.8-2.4-2-3.1-3.3s-0.9-2.8-0.9-4.3c0-2,0.4-3.6,1.3-4.8
			s2.1-2.2,3.5-3c1.4-0.8,2.9-1.4,4.5-1.9c1.6-0.5,3.1-1,4.5-1.5s2.6-1.1,3.5-1.8s1.3-1.6,1.3-2.6v-6.3c0-0.8-0.1-1.6-0.4-2.5
			s-0.7-1.7-1.4-2.3c-0.7-0.7-1.8-1-3.2-1c-0.8,0-1.5,0.1-2.1,0.3s-1.3,0.5-1.8,0.9c1.6,0.6,2.8,1.5,3.6,2.6
			c0.8,1.1,1.1,2.3,1.1,3.6c0,1.9-0.7,3.4-2,4.4s-2.9,1.6-4.6,1.6c-1.9,0-3.3-0.6-4.4-1.8s-1.6-2.6-1.6-4.4c0-1.5,0.4-2.7,1.1-3.7
			s1.8-1.9,3.3-2.8c1.4-0.8,3.1-1.4,5.1-1.7s4-0.5,6.2-0.5c2.3,0,4.4,0.2,6.4,0.7s3.7,1.4,5.1,2.8c1,1,1.6,2.3,1.9,3.9
			s0.4,3.5,0.4,6v18.9c0,1.2,0.1,2,0.2,2.4c0.2,0.4,0.5,0.6,0.9,0.6c0.4,0,0.7-0.1,1.1-0.3s0.7-0.5,1-0.7l0.7,1.2
			c-1,0.9-2.3,1.5-3.8,2s-3.1,0.6-4.8,0.6c-2,0-3.6-0.2-4.7-0.7s-1.9-1.2-2.3-2c-0.5-0.8-0.7-1.7-0.7-2.6c-1,1.5-2.2,2.8-3.7,3.8
			S249.1,577.7,246.6,577.7L246.6,577.7z M253.3,572.1c0.5,0,1-0.1,1.4-0.2c0.4-0.2,0.8-0.5,1.2-1V556c-0.3,0.6-0.8,1.2-1.3,1.8
			c-0.5,0.6-1.1,1.2-1.6,1.8s-1.1,1.3-1.6,2s-0.9,1.5-1.2,2.4s-0.5,2-0.5,3.2c0,1.8,0.3,3,1,3.8
			C251.4,571.7,252.3,572.1,253.3,572.1z"/>
		<path class="st2" d="M290.9,540v42.7c0,2.3,0.5,3.8,1.6,4.6c1.1,0.8,2.6,1.2,4.4,1.2v1.5c-1.3,0-3.1-0.1-5.5-0.2
			c-2.4-0.1-4.8-0.1-7.5-0.1c-1.9,0-3.7,0-5.6,0.1s-3.2,0.1-4.1,0.2v-1.5c1.5,0,2.5-0.3,3.1-1.1c0.6-0.7,0.9-2,0.9-4v-35
			c0-2.1-0.3-3.7-0.8-4.7s-1.6-1.5-3.1-1.5v-1.5c1.5,0.1,3,0.2,4.4,0.2c2.4,0,4.5-0.1,6.6-0.2C287.3,540.5,289.2,540.3,290.9,540
			L290.9,540z M301.6,539.7c2.4,0,4.4,0.7,6.3,1.9s3.3,3.2,4.4,5.8c1.1,2.6,1.6,5.9,1.6,9.9s-0.4,7.3-1.3,10s-2.1,4.8-3.6,6.4
			c-1.5,1.6-3.3,2.7-5.2,3.4s-4.1,1-6.3,1c-1.6,0-3.1-0.2-4.5-0.5c-1.4-0.3-2.6-1-3.6-2l0.7-0.9c0.4,0.5,0.9,0.9,1.5,1.1
			c0.6,0.2,1.2,0.3,1.8,0.3c1.7,0,3.1-0.6,4.2-1.9s1.9-3.2,2.4-5.7s0.7-5.7,0.7-9.5c0-4.2-0.2-7.4-0.6-9.6s-1-3.8-1.7-4.7
			s-1.5-1.3-2.4-1.3c-1.3,0-2.5,0.5-3.5,1.4s-1.5,2.2-1.5,3.7V545c1.1-1.8,2.5-3.1,4.4-4S299.2,539.7,301.6,539.7L301.6,539.7z"/>
		<path class="st2" d="M334,522.2V545c1.1-1.9,2.6-3.2,4.5-4s4.1-1.2,6.6-1.2c2.2,0,3.9,0.3,5.1,0.8c1.2,0.5,2.2,1.2,2.9,2
			c0.7,0.8,1.2,2,1.5,3.4c0.3,1.4,0.5,3.3,0.5,5.7v19.1c0,2,0.3,3.3,0.9,4s1.6,1.1,3.1,1.1v1.5c-0.9,0-2.4-0.1-4.3-0.2
			c-1.9-0.1-3.8-0.1-5.6-0.1c-2,0-3.9,0-5.8,0.1c-1.9,0.1-3.3,0.1-4.2,0.2v-1.5c1.2,0,2.1-0.3,2.5-1.1c0.5-0.7,0.7-2,0.7-4v-22.9
			c0-1-0.1-1.8-0.4-2.5c-0.2-0.7-0.6-1.2-1.1-1.5c-0.5-0.3-1.2-0.5-2-0.5s-1.6,0.2-2.4,0.6c-0.8,0.4-1.4,1-1.9,1.8
			c-0.5,0.8-0.7,1.7-0.7,2.6v22.2c0,2,0.2,3.3,0.7,4s1.3,1.1,2.5,1.1v1.5c-0.9,0-2.2-0.1-3.9-0.2c-1.7-0.1-3.5-0.1-5.4-0.1
			c-2,0-4,0-6,0.1c-2,0.1-3.5,0.1-4.6,0.2v-1.5c1.5,0,2.5-0.3,3.1-1.1c0.6-0.7,0.9-2,0.9-4v-40.1c0-2.1-0.3-3.7-0.8-4.7
			s-1.6-1.5-3.1-1.5v-1.5c1.5,0.1,3,0.2,4.4,0.2c2.4,0,4.5-0.1,6.6-0.2C330.4,522.7,332.3,522.5,334,522.2L334,522.2z"/>
		<path class="st2" d="M378,539.9v30.8c0,2,0.3,3.3,0.9,4s1.6,1.1,3.1,1.1v1.5c-0.9,0-2.4-0.1-4.2-0.2c-1.9-0.1-3.8-0.1-5.8-0.1
			s-4,0-6,0.1c-2,0.1-3.5,0.1-4.6,0.2v-1.5c1.5,0,2.5-0.3,3.1-1.1c0.6-0.7,0.9-2,0.9-4v-22.3c0-2.1-0.3-3.7-0.8-4.7
			s-1.6-1.5-3.1-1.5v-1.5c1.5,0.1,3,0.2,4.4,0.2c2.4,0,4.5-0.1,6.6-0.2C374.4,540.5,376.3,540.2,378,539.9L378,539.9z M371.3,522.2
			c2.4,0,4.3,0.5,5.7,1.5c1.3,1,2,2.5,2,4.5s-0.7,3.5-2,4.5c-1.3,1-3.2,1.5-5.7,1.5s-4.3-0.5-5.7-1.5c-1.3-1-2-2.5-2-4.5
			s0.7-3.5,2-4.5C366.9,522.7,368.8,522.2,371.3,522.2z"/>
		<path class="st2" d="M403.4,539.7c2.1,0,3.9,0.2,5.5,0.6c1.6,0.4,2.9,0.9,3.8,1.5c1.3,0.8,2.3,1.8,3.1,3s1.2,2.7,1.2,4.3
			c0,1.9-0.6,3.5-1.9,4.9c-1.3,1.3-2.9,2-4.9,2s-3.7-0.6-4.8-1.8s-1.7-2.7-1.7-4.6s0.6-3.3,1.7-4.5c1.1-1.2,2.5-2.1,4-2.5
			c-0.3-0.2-0.7-0.4-1.2-0.6c-0.5-0.2-1-0.2-1.6-0.2c-1.7,0-3.1,0.5-4.1,1.5s-1.9,2.3-2.5,4c-0.6,1.6-1,3.4-1.2,5.3
			c-0.2,1.9-0.4,3.7-0.4,5.5c0,3.3,0.5,5.8,1.3,7.7c0.9,1.8,2,3.1,3.4,3.8c1.4,0.7,2.7,1.1,4.1,1.1c0.7,0,1.4-0.1,2.4-0.3
			c0.9-0.2,1.9-0.6,3-1.3s2.1-1.7,3.2-3.1l1.2,0.4c-0.6,1.9-1.5,3.7-2.7,5.6c-1.2,1.8-2.9,3.4-4.8,4.6s-4.4,1.8-7.2,1.8
			c-3.1,0-6-0.6-8.5-1.8c-2.6-1.2-4.6-3.2-6.1-6c-1.5-2.8-2.3-6.6-2.3-11.3s0.8-8.2,2.4-11c1.6-2.8,3.8-4.9,6.5-6.3
			C396.9,540.3,400,539.7,403.4,539.7L403.4,539.7z"/>
	</g>
	<g>
		<path class="st1" d="M452.4,539.8c2.1,0,3.9,0.3,5.4,0.9s2.8,1.6,3.7,2.9l-0.8,0.7c-0.6-0.8-1.4-1.4-2.2-1.8s-1.8-0.6-2.7-0.6
			c-2.2,0-4,1.4-5.2,4.2s-1.9,7.1-1.9,12.8c0,4,0.2,7.2,0.7,9.5s1.2,4,2,4.9s1.8,1.4,2.9,1.4c1.5,0,2.8-0.5,3.9-1.7
			c1.1-1.1,1.8-2.6,1.8-4.4l0.2,3c-0.8,2.2-2,3.8-3.5,4.9s-3.4,1.6-5.7,1.6c-2.7,0-5.2-0.7-7.4-2c-2.2-1.4-3.9-3.5-5.1-6.3
			c-1.2-2.8-1.9-6.5-1.9-11.1c0-4.3,0.7-7.8,2-10.6c1.3-2.8,3.2-4.9,5.6-6.3S449.3,539.8,452.4,539.8L452.4,539.8z M471.3,522.2
			v47.3c0,2.1,0.3,3.7,1,4.7s1.7,1.5,3.3,1.5v1.5c-1.5-0.1-2.9-0.2-4.4-0.2c-2.1,0-4.1,0.1-6,0.2c-1.9,0.1-3.6,0.4-5.3,0.8v-47.3
			c0-2.1-0.3-3.7-0.9-4.7s-1.7-1.5-3.3-1.5v-1.5c1.5,0.1,3,0.2,4.4,0.2c2.2,0,4.2-0.1,6-0.2C468,522.7,469.7,522.5,471.3,522.2
			L471.3,522.2z"/>
		<path class="st1" d="M496.8,539.8c4.1,0,7.4,1.2,9.7,3.7s3.5,6.5,3.5,12h-22.6l-0.1-1.3h13.1c0.1-2.3,0-4.4-0.3-6.4
			s-0.7-3.5-1.4-4.7s-1.5-1.8-2.5-1.8c-1.4,0-2.6,1-3.6,3s-1.6,5.5-1.8,10.3l0.3,0.5c-0.1,0.5-0.1,1-0.1,1.6v1.7
			c0,3.2,0.4,5.8,1.3,7.7s2,3.3,3.3,4.1c1.3,0.8,2.7,1.2,4.1,1.2c0.8,0,1.7-0.1,2.7-0.3s2-0.7,3.1-1.5c1.1-0.8,2.1-1.8,3.1-3.3
			l1.2,0.4c-0.5,1.8-1.4,3.6-2.6,5.4c-1.2,1.8-2.8,3.2-4.8,4.4c-1.9,1.2-4.2,1.7-7,1.7c-3.1,0-5.9-0.7-8.3-1.9s-4.4-3.3-5.8-6.1
			s-2.1-6.4-2.1-11s0.8-8.1,2.3-11c1.5-2.9,3.7-5,6.3-6.4S493.4,539.7,496.8,539.8L496.8,539.8z"/>
		<path class="st1" d="M528.1,539.8c2.1,0,3.8,0.2,5.3,0.7c1.5,0.5,2.6,0.9,3.3,1.3c1.6,1,2.6,0.4,3-2h1.5c-0.1,1.4-0.2,3-0.2,4.9
			c0,1.9-0.1,4.5-0.1,7.6h-1.5c-0.2-1.7-0.6-3.5-1.2-5.1s-1.6-3.1-2.8-4.2c-1.2-1.1-2.8-1.7-4.8-1.7c-1.3,0-2.3,0.4-3.2,1.1
			c-0.9,0.8-1.3,1.8-1.3,3.1c0,1.4,0.4,2.7,1.3,3.7c0.8,1.1,1.9,2.1,3.3,3.1c1.3,1,2.7,2,4,3.2c1.5,1.1,2.8,2.3,4,3.4
			c1.2,1.2,2.2,2.4,2.9,3.7c0.7,1.3,1.1,3,1.1,4.8c0,2.1-0.6,4-1.9,5.6c-1.3,1.6-2.9,2.8-5,3.7c-2.1,0.9-4.4,1.3-6.9,1.3
			c-1.5,0-2.9-0.2-4-0.5c-1.2-0.3-2.1-0.7-2.8-1.2c-0.7-0.3-1.3-0.6-1.9-0.8c-0.5-0.2-1.1-0.4-1.6-0.5c-0.5,0-0.9,0.2-1.2,0.6
			c-0.3,0.5-0.6,1.1-0.8,1.8h-1.5c0.1-1.5,0.2-3.3,0.2-5.5c0-2.2,0.1-5,0.1-8.6h1.5c0.3,2.5,0.8,4.8,1.6,6.7
			c0.8,1.9,1.8,3.4,3.1,4.5s2.9,1.7,4.7,1.7c0.8,0,1.5-0.2,2.2-0.5c0.7-0.3,1.2-0.8,1.7-1.4c0.5-0.7,0.7-1.5,0.7-2.5
			c0-2.1-0.7-3.8-2-5.2s-2.9-2.9-4.9-4.5c-1.5-1.3-2.9-2.5-4.2-3.7s-2.3-2.6-3.2-4s-1.2-3.1-1.2-4.9c0-2.1,0.6-3.9,1.8-5.4
			s2.8-2.6,4.7-3.4C523.9,540.1,525.9,539.8,528.1,539.8L528.1,539.8z"/>
		<path class="st1" d="M562.3,540v30.7c0,2,0.3,3.3,1,4s1.7,1.1,3.3,1.1v1.5c-0.9,0-2.3-0.1-4.2-0.2s-3.7-0.1-5.6-0.1
			s-3.8,0-5.7,0.1s-3.4,0.1-4.4,0.2v-1.5c1.5,0,2.6-0.3,3.3-1.1c0.6-0.7,1-2,1-4v-22.2c0-2.1-0.3-3.7-0.9-4.7s-1.7-1.5-3.3-1.5v-1.5
			c1.5,0.1,3,0.2,4.4,0.2c2.1,0,4.1-0.1,6-0.2C559,540.5,560.7,540.3,562.3,540L562.3,540z M556.1,522.4c2.2,0,3.9,0.5,5.2,1.5
			s1.9,2.4,1.9,4.3s-0.6,3.3-1.9,4.3c-1.2,1-3,1.5-5.2,1.5s-3.9-0.5-5.2-1.5s-1.9-2.4-1.9-4.3s0.6-3.3,1.9-4.3
			C552.2,522.9,553.9,522.4,556.1,522.4z"/>
		<path class="st1" d="M583.2,590.4c-3,0-5.7-0.2-8-0.7c-2.3-0.5-4.1-1.2-5.3-2.2s-1.9-2.1-1.9-3.5s0.7-2.7,2-3.8s3.3-2,6-2.7
			l0.6,1.1c-0.8,0.8-1.4,1.6-1.7,2.4c-0.3,0.8-0.5,1.5-0.5,2.3c0,1.9,0.9,3.4,2.6,4.4c1.7,1,4.1,1.5,7.2,1.5c2.1,0,3.9-0.3,5.5-0.9
			s2.8-1.4,3.6-2.5s1.3-2.3,1.3-3.8c0-1.4-0.5-2.5-1.5-3.5s-3-1.4-6.1-1.4h-4.1c-2,0-3.8-0.3-5.2-0.8c-1.5-0.5-2.6-1.2-3.3-2.2
			s-1.2-2.1-1.2-3.5c0-2.1,0.8-3.9,2.5-5.4c1.6-1.5,3.9-2.8,6.8-4.1l0.6,0.6c-0.7,0.4-1.4,0.9-2,1.5c-0.6,0.6-1,1.3-1,2.2
			c0,1.5,0.9,2.2,2.7,2.2h7.2c2.8,0,5.3,0.3,7.5,1c2.2,0.6,3.9,1.7,5.1,3.1s1.9,3.3,1.9,5.6s-0.8,4.5-2.2,6.5s-3.8,3.5-6.9,4.8
			S588.1,590.4,583.2,590.4L583.2,590.4z M584.1,562.2c-2.8,0-5.3-0.4-7.5-1.2s-3.9-2-5.2-3.7c-1.3-1.7-1.9-3.8-1.9-6.4
			s0.6-4.7,1.9-6.3c1.3-1.6,3-2.9,5.2-3.7s4.7-1.2,7.5-1.2s5.3,0.4,7.5,1.2c2.2,0.8,3.9,2,5.2,3.7s1.9,3.8,1.9,6.3s-0.6,4.7-1.9,6.4
			s-3,2.9-5.2,3.7S586.9,562.2,584.1,562.2z M584.1,560.9c1,0,1.9-0.7,2.5-2.2s1-4.1,1-7.8s-0.3-6.3-1-7.8s-1.5-2.2-2.5-2.2
			s-1.9,0.7-2.5,2.2c-0.6,1.4-0.9,4-0.9,7.8s0.3,6.4,0.9,7.8C582.2,560.2,583.1,560.9,584.1,560.9z M595.3,545.9l-1.5-0.5
			c0.8-1.9,1.9-3.5,3.5-4.7c1.6-1.2,3.3-1.8,5.2-1.8c1.5,0,2.7,0.4,3.5,1.3s1.2,2,1.2,3.3s-0.4,2.4-1.1,3.1
			c-0.7,0.7-1.6,1.1-2.6,1.1c-0.8,0-1.6-0.3-2.3-0.9s-1.1-1.5-1.2-2.7c-0.1-1.2,0.3-2.7,1.3-4.5l0.4,0.4c-1.7,0.6-3.1,1.4-4,2.2
			S596,544.4,595.3,545.9L595.3,545.9z"/>
		<path class="st1" d="M636,539.8c2.1,0,3.7,0.3,5,0.8c1.2,0.5,2.2,1.2,2.8,2c0.8,0.9,1.3,2,1.7,3.5s0.5,3.3,0.5,5.7v19
			c0,2,0.3,3.3,1,4s1.7,1.1,3.3,1.1v1.5c-0.9,0-2.3-0.1-4.2-0.2s-3.7-0.1-5.4-0.1c-1.9,0-3.8,0-5.6,0.1c-1.8,0.1-3.1,0.1-4,0.2v-1.5
			c1.3,0,2.2-0.3,2.8-1.1c0.5-0.7,0.8-2,0.8-4v-22.4c0-1.1-0.1-2-0.3-2.8c-0.2-0.8-0.6-1.4-1.2-1.8c-0.6-0.4-1.4-0.6-2.4-0.6
			s-2.1,0.3-3,0.8c-0.9,0.6-1.6,1.3-2.2,2.4s-0.8,2.2-0.8,3.4v20.9c0,2,0.3,3.3,0.8,4c0.5,0.7,1.4,1.1,2.8,1.1v1.5
			c-0.9,0-2.2-0.1-3.9-0.2s-3.4-0.1-5.1-0.1c-1.9,0-3.8,0-5.8,0.1c-1.9,0.1-3.4,0.1-4.4,0.2v-1.5c1.5,0,2.6-0.3,3.3-1.1
			c0.6-0.7,1-2,1-4v-22.2c0-2.1-0.3-3.7-0.9-4.7s-1.7-1.5-3.3-1.5v-1.5c1.5,0.1,3,0.2,4.4,0.2c2.1,0,4.1-0.1,6-0.2
			c1.9-0.2,3.7-0.4,5.2-0.7v5.7c1.1-2.2,2.7-3.7,4.6-4.6C631.2,540.2,633.4,539.7,636,539.8L636,539.8z"/>
		<path class="st1" d="M671,539.8c4.1,0,7.4,1.2,9.7,3.7s3.5,6.5,3.5,12h-22.6l-0.1-1.3h13.1c0.1-2.3,0-4.4-0.3-6.4
			s-0.7-3.5-1.4-4.7s-1.5-1.8-2.5-1.8c-1.4,0-2.6,1-3.6,3c-1,2-1.6,5.5-1.8,10.3l0.3,0.5c-0.1,0.5-0.1,1-0.1,1.6v1.7
			c0,3.2,0.4,5.8,1.3,7.7s2,3.3,3.3,4.1c1.3,0.8,2.7,1.2,4.1,1.2c0.8,0,1.7-0.1,2.7-0.3s2-0.7,3.1-1.5c1.1-0.8,2.1-1.8,3.1-3.3
			l1.2,0.4c-0.5,1.8-1.4,3.6-2.6,5.4c-1.2,1.8-2.8,3.2-4.8,4.4c-1.9,1.2-4.2,1.7-7,1.7c-3.1,0-5.9-0.7-8.3-1.9s-4.4-3.3-5.8-6.1
			s-2.2-6.4-2.2-11s0.8-8.1,2.3-11s3.7-5,6.3-6.4C664.7,540.4,667.7,539.7,671,539.8L671,539.8z"/>
		<path class="st1" d="M712.5,539.8c1.6,0,2.9,0.3,3.8,1s1.6,1.5,2,2.6c0.4,1.1,0.6,2.1,0.6,3.1c0,1.9-0.5,3.5-1.7,4.7
			c-1.1,1.2-2.5,1.8-4.3,1.8c-1.9,0-3.3-0.4-4.3-1.3c-1-0.9-1.5-2-1.5-3.5s0.3-2.7,1-3.6s1.4-1.7,2.4-2.4c-0.7-0.1-1.4,0-2,0.3
			c-0.8,0.2-1.5,0.5-2.1,1.1c-0.7,0.5-1.2,1.1-1.7,1.8c-0.5,0.7-0.8,1.5-1.1,2.3s-0.4,1.7-0.4,2.5V570c0,2.2,0.5,3.8,1.5,4.6
			s2.6,1.2,4.8,1.2v1.5c-1.1,0-2.7-0.1-4.8-0.2s-4.3-0.1-6.5-0.1c-2,0-4,0-6.1,0.1c-2,0.1-3.6,0.1-4.5,0.2v-1.5
			c1.5,0,2.6-0.3,3.3-1.1c0.6-0.7,1-2,1-4v-22.2c0-2.1-0.3-3.7-0.9-4.7s-1.7-1.5-3.3-1.5v-1.5c1.5,0.1,3,0.2,4.4,0.2
			c2.1,0,4.1-0.1,6-0.2c1.9-0.2,3.7-0.4,5.2-0.7v5.8c0.6-1.2,1.3-2.3,2.2-3.2c0.9-0.9,2-1.6,3.2-2.1
			C709.8,540,711.1,539.8,712.5,539.8L712.5,539.8z"/>
		<path class="st1" d="M726.3,566.7c2,0,3.6,0.5,4.8,1.5s1.7,2.4,1.7,4.2s-0.6,3.3-1.7,4.3c-1.2,1-2.7,1.5-4.8,1.5s-3.7-0.5-4.8-1.5
			s-1.7-2.4-1.7-4.3s0.6-3.2,1.7-4.2C722.6,567.2,724.2,566.7,726.3,566.7z"/>
	</g>
	<g>
		<defs>
			<rect id="SVGID_1_" x="1433.3" y="14.5" width="466.1" height="659.2"/>
		</defs>
		<clipPath id="SVGID_00000183244611099877370830000003846946222119944327_">
			<use xlink:href="#SVGID_1_"  style="overflow:visible;"/>
		</clipPath>
		<g style="clip-path:url(#SVGID_00000183244611099877370830000003846946222119944327_);">
			<g>
				<defs>
					<rect id="SVGID_00000178905181147708562000000014645950886678567607_" x="1433.3" y="14.5" width="466.1" height="659.2"/>
				</defs>
				<clipPath id="SVGID_00000150100692813792195670000011137064479172997549_">
					<use xlink:href="#SVGID_00000178905181147708562000000014645950886678567607_"  style="overflow:visible;"/>
				</clipPath>
				<g style="clip-path:url(#SVGID_00000150100692813792195670000011137064479172997549_);">
					
						<image style="overflow:visible;enable-background:new    ;" width="621" height="880" xlink:href="6C14E5196BC4B253.png"  transform="matrix(0.7474 0 0 0.7474 1433.729 14.53)">
					</image>
				</g>
			</g>
		</g>
	</g>
	<g>
		<defs>
			<rect id="SVGID_00000078020072855294670940000004827082875745672356_" x="432.2" width="1068.9" height="294.9"/>
		</defs>
		<clipPath id="SVGID_00000100346393332218753470000002061016030380774299_">
			<use xlink:href="#SVGID_00000078020072855294670940000004827082875745672356_"  style="overflow:visible;"/>
		</clipPath>
		<g style="clip-path:url(#SVGID_00000100346393332218753470000002061016030380774299_);">
			<path class="st1" d="M545.8,89.5c-0.1,16.6,0.5,34.1,13.7,34.2c10.8,0,13.8-14.4,13.9-34.1c0-15.4-2-34.7-6.1-52.6l64.8,0.2
				c-4.5,13.9-6.7,26.9-6.7,38.6c-0.1,35,20.9,48.1,54.8,48.2c19.2,0.1,32.8-7.7,32.8-18c0-12.4-8.1-3.7-31.5-3.7
				c-21.3-0.1-35.1-13.7-35-34.8c0.1-23.6,15.1-35.9,40-35.8c34.2,0.1,54.3,21.6,54.2,58.5c-0.2,74.6-48.4,110.4-87.7,110.2
				c-32.1-0.1-48-20.7-49.7-52.7c-0.3-6.6-1.8-10.9-8.4-10.9c-6.6,0-8.7,4.5-10.8,11.4c-9.1,30.2-31.1,51.8-72.2,51.7
				c-36.9-0.1-58.8-24.7-58.6-65.4c0.1-33.2,1-96.2-21-134.5l131.7,0.4C543.3,16.9,545.9,73.1,545.8,89.5"/>
			<path class="st1" d="M805.6,84.1c0,3.5,1.7,5.8,4.2,5.8c2.3,0,4.8-1.9,6.2-5.1c5.2-11.8,13.9-24.5,33.4-24.5
				c23.9,0,34.7,14.4,34.7,42.5v0.7c-0.1,34.2-28.2,61.6-62.1,61.6h-2.9c3.1-22.7,4.4-40.4,4.4-50.7c0-8.3-4.6-11.5-9.1-11.5
				c-4,0-9.5,3.1-9.5,13.4c0,11.6,1,29.7,4.2,48.7h-66.6c14.8-40.4,20.8-89.7-1.9-130.1h67.5C806.9,47.6,805.6,70.3,805.6,84.1"/>
			<path class="st1" d="M891.8,64.2h66.6c-3.9,33.6-3.9,67.4,0,100.9h-66.6C895.7,131.6,895.7,97.8,891.8,64.2"/>
			<path class="st6" d="M904.4,42.1c0-10.9,9.5-17.7,21.8-17.7s21.6,6.8,21.6,17.7c0,9.1-8.3,16.3-21.6,16.3S904.4,51.2,904.4,42.1"
				/>
			<path class="st1" d="M973.3,124.4v-14.6c0-7.8-2.3-12.8-7.9-12.8V64.2c24.5,0,50.4-13,62.9-29.1h2.9v15.3
				c0,9.1,2.7,13.8,9.8,13.8h14.9v32.8h-12c-7.1,0-9.8,4.7-9.8,13.8v2.3c0,19,5.8,31.6,18.3,31.6c2.3,0,4.2-0.2,6.4-0.8v1.2
				c-5,11.3-19.3,23.9-42.3,23.9C989.8,169.1,973.2,154.3,973.3,124.4"/>
			<path class="st1" d="M1332.5,186.2c-19.5,0-28.2,12.6-33.4,24.5c-1.3,3.1-3.9,5.1-6.2,5.1c-2.5,0-4.2-2.3-4.2-5.8
				c0-8.4,0.5-20.1,1.2-30.8c-0.9,0-1.7,0.1-2.6,0.1c-22.4,0-40.5-6.6-52.7-18.3h-10.8c22.8,40.4,16.8,89.7,1.9,130.1h66.6
				c-3.3-19-4.2-37.1-4.2-48.7c0-10.3,5.4-13.4,9.5-13.4c4.4,0,9.1,3.1,9.1,11.5c0,10.3-1.3,28-4.4,50.7h2.9c34,0,62-27.4,62.1-61.6
				v-0.7C1367.2,200.5,1356.4,186.2,1332.5,186.2"/>
			<path class="st1" d="M1420.3,114.9c0,8.3,4.6,11.5,9.1,11.5c4.1,0,9.5-3.1,9.5-13.4c0-11.3-1-28.7-4.1-47l-0.2-1.7h66.6
				c-4.6,25.8-1,47.4-1,71.8c0,42.9-31.3,62.1-72,62.1c-22.4,0-43.2-9.9-49.2-21.2v-1.2c2.9,0.8,8.9,1.6,15.1,1.6
				c25.3,0,44.2-16.7,44.2-32c0-3.5-1.7-5.8-4.2-5.8c-2.3,0-4.6,1.9-6.2,5.1c-6,11.9-16.8,19.6-34.3,19.6c-23,0-33.8-16.5-33.8-40.8
				s2.5-40-1.6-59.2h66.6C1421.6,87,1420.3,104.7,1420.3,114.9"/>
			<path class="st1" d="M703.3,210.9c0-21.7,19.9-28,45.8-28s52.9,4.5,69.9,2.1l-1.2,47.6c-12-10.1-26.8-16.7-40.9-16.7
				c-5.4,0-9.7,2.1-9.7,6c0,13.4,54-4.9,54,37.6c0,19.8-16.6,32-50,32c-27.2,0-43.2-4.1-67.8-3.9l-0.8-51.8
				c11.4,8.9,27.2,15.7,40.7,15.7c7.5,0,12-2.9,12-6.8C755.4,231.4,703.3,250.3,703.3,210.9"/>
			<path class="st1" d="M894.4,208.5c0,3.5,1.7,5.8,4.2,5.8c2.3,0,4.8-1.9,6.2-5.1c5.2-11.8,13.9-24.4,33.4-24.4s27.4,8.5,30.5,25.4
				c0.8,2.5,2.3,4.1,4.6,4.1c2.7,0,4.8-1.9,6.2-5.1c5.2-11.8,13.9-24.4,33.4-24.4c23.9,0,31.8,14.4,31.8,42.5
				c0,24.3-4.4,43.1,1.6,62.3h-66.6c3.1-22.7,4.4-40.4,4.4-50.7c0-8.4-2.9-11.5-7.3-11.5s-8.3,3.3-8.3,14.2c0,15.7,1,29.3,3.1,47.9
				H905c3.1-22.7,4.4-40.4,4.4-50.7c0-8.4-3.5-11.5-7.9-11.5c-4,0-7.7,3.1-7.7,13.4c0,11.6,1,29.7,4.2,48.7h-66.6
				c3.3-33.6,2.5-67.4-1.9-100.9h67.5C895.7,195.3,894.4,204.5,894.4,208.5"/>
			<path class="st1" d="M1058.8,188.7h66.6c-3.9,33.6-3.9,67.4,0,100.9h-66.6C1062.6,256.1,1062.6,222.3,1058.8,188.7"/>
			<path class="st1" d="M1288.3,98.2c6.6,0,9.7-4.8,9.7-10.5c0-6.4-3.1-12.2-9.7-12.2s-9.3,5.8-9.3,12.2
				C1279,93.3,1281.7,98.2,1288.3,98.2 M1310.1,122.5c13.1,0,27.6-1.9,39.4-5.2c-2.5,33-29.3,51.8-63.1,51.8
				c-40,0-63.7-21.4-63.7-54.2s25.7-54.5,65.6-54.5c35.1,0,59.3,14.4,59.3,47.8h-62.2c-5,0-7.3,1.6-7.3,4.7
				C1278.1,118.4,1289.1,122.5,1310.1,122.5"/>
			<path class="st1" d="M1138.5,250.2v-14.6c0-7.8-2.3-12.8-7.9-12.8V190c24.5,0,50.4-13,62.9-29.1h2.9v15.3
				c0,9.1,2.7,13.8,9.8,13.8h14.9v32.8h-12c-7.1,0-9.8,4.7-9.8,13.8v2.3c0,19,5.8,31.6,18.3,31.6c2.3,0,4.2-0.2,6.4-0.8v1.2
				c-5,11.3-19.3,23.9-42.3,23.9C1155.1,294.9,1138.5,280.1,1138.5,250.2"/>
			<path class="st1" d="M1209.2,163.8c-5.6-18-1.4-35.7-1.4-58.4c0-26.4-10.1-39.8-32.6-39.8c-18.3,0-26.4,11.8-31.3,22.9
				c-1.3,2.9-3.6,4.7-5.8,4.7c-2.3,0-4-2.2-4-5.4c0-3.8,1.3-12.4,2.5-18.5h-63.3c3.2,24.6,4.4,49.2,3.3,73.8
				c4.5-2.7,10.2-4.3,16.5-4.3c16.3,0,27.7,9.8,27.7,23.7c0,0.4,0,0.8-0.1,1.3h16.9c-3.1-17.8-4-34.8-4-45.7
				c0-9.6,5.1-12.6,8.9-12.6c4.2,0,8.5,2.9,8.5,10.7c0,9.6-1.3,26.2-4.2,47.5h30.7c4.3-3.2,8.1-6.8,11.1-10.7l1.8-2.3h11.9v13
				L1209.2,163.8L1209.2,163.8L1209.2,163.8z"/>
			<path class="st6" d="M1068.8,164.5c0-10.9,9.5-17.7,21.8-17.7s21.6,6.8,21.6,17.7c0,9.1-8.3,16.3-21.6,16.3
				S1068.8,173.6,1068.8,164.5"/>
		</g>
	</g>
</g>
</svg>
