<?xml version="1.0" encoding="UTF-8"?>
<svg id="Layer_2" data-name="Layer 2" xmlns="http://www.w3.org/2000/svg" xmlns:xlink="http://www.w3.org/1999/xlink" viewBox="0 0 705.42 190.65">
  <defs>
    <style>
      .cls-1 {
        clip-path: url(#clippath);
      }

      .cls-2 {
        fill: none;
      }

      .cls-2, .cls-3, .cls-4 {
        stroke-width: 0px;
      }

      .cls-3 {
        fill: #231f20;
      }

      .cls-4 {
        fill: #a0b847;
      }
    </style>
    <clipPath id="clippath">
      <rect class="cls-2" width="705.42" height="190.65"/>
    </clipPath>
  </defs>
  <g id="Layer_1-2" data-name="Layer 1">
    <g class="cls-1">
      <path class="cls-3" d="m74.97,59.04c-.04,10.96.33,22.52,9.05,22.55,7.13.02,9.14-9.54,9.19-22.49.03-10.16-1.31-22.92-4.05-34.69l42.8.14c-3,9.16-4.41,17.72-4.44,25.49-.07,23.12,13.77,31.73,36.16,31.8,12.68.04,21.62-5.11,21.64-11.89.03-8.17-5.35-2.41-20.8-2.46-14.07-.04-23.15-9.04-23.11-22.99.05-15.55,9.98-23.68,26.43-23.63,22.59.07,35.82,14.26,35.74,38.58-.16,49.22-31.94,72.84-57.9,72.76-21.2-.07-31.66-13.65-32.79-34.78-.18-4.39-1.16-7.18-5.52-7.19-4.36-.01-5.75,2.97-7.16,7.55-6,19.91-20.52,34.21-47.66,34.13-24.37-.08-38.79-16.27-38.7-43.17C13.92,66.81,14.48,25.29,0,0l86.92.28c-13.58,10.9-11.92,48-11.95,58.76"/>
      <path class="cls-3" d="m246.38,55.47c0,2.31,1.14,3.84,2.8,3.84,1.53,0,3.18-1.28,4.08-3.33,3.44-7.81,9.17-16.14,22.04-16.14,15.8,0,22.93,9.48,22.93,28.06,0,.16,0,.32,0,.48-.08,22.55-18.59,40.64-41,40.64h-1.92c2.04-14.99,2.93-26.65,2.93-33.44,0-5.51-3.06-7.56-5.99-7.56-2.67,0-6.24,2.05-6.24,8.84,0,7.69.64,19.6,2.8,32.15h-43.95c9.79-26.67,13.75-59.19-1.27-85.83h44.58c-.89,8.2-1.78,23.19-1.78,32.28"/>
      <path class="cls-3" d="m303.31,42.4h43.94c-2.55,22.16-2.55,44.46,0,66.62h-43.94c2.55-22.16,2.55-44.46,0-66.62"/>
      <path class="cls-4" d="m311.59,27.8c0-7.17,6.24-11.66,14.39-11.66s14.27,4.48,14.27,11.66c0,6.02-5.48,10.76-14.27,10.76s-14.39-4.74-14.39-10.76"/>
      <path class="cls-3" d="m357.06,82.12v-9.61c0-5.12-1.53-8.46-5.22-8.46v-21.65c16.18,0,33.25-8.58,41.53-19.22h1.91v10.12c0,6.02,1.79,9.1,6.5,9.1h9.81v21.65h-7.9c-4.71,0-6.5,3.07-6.5,9.1v1.54c0,12.56,3.82,20.88,12.1,20.88,1.53,0,2.8-.13,4.2-.51v.77c-3.31,7.43-12.74,15.76-27.9,15.76-17.58,0-28.53-9.74-28.53-29.47"/>
      <path class="cls-3" d="m594.1,118.91c-12.86,0-18.6,8.33-22.04,16.14-.89,2.05-2.55,3.33-4.08,3.33-1.66,0-2.8-1.54-2.8-3.85,0-5.54.33-13.25.79-20.29-.57.02-1.12.06-1.69.06-14.76,0-26.73-4.39-34.77-12.05h-7.13c15.02,26.65,11.07,59.17,1.27,85.84h43.95c-2.17-12.56-2.8-24.47-2.8-32.16,0-6.79,3.57-8.84,6.24-8.84,2.93,0,5.99,2.05,5.99,7.56,0,6.79-.89,18.45-2.93,33.44h1.92c22.42,0,40.92-18.1,41-40.64,0-.16,0-.32,0-.48,0-18.58-7.13-28.06-22.93-28.06"/>
      <path class="cls-3" d="m652.05,75.84c0,5.51,3.06,7.56,5.99,7.56,2.67,0,6.24-2.05,6.24-8.84,0-7.43-.64-18.96-2.68-31l-.13-1.15h43.95c-3.06,17.04-.64,31.26-.64,47.4,0,28.31-20.64,41-47.51,41-14.78,0-28.53-6.53-32.48-13.96v-.77c1.91.51,5.86,1.03,9.94,1.03,16.69,0,29.17-11.02,29.17-21.14,0-2.31-1.15-3.84-2.8-3.84-1.53,0-3.06,1.28-4.08,3.33-3.95,7.82-11.08,12.94-22.67,12.94-15.16,0-22.29-10.89-22.29-26.9s1.66-26.39-1.02-39.07h43.95c-2.04,14.99-2.93,26.65-2.93,33.44"/>
      <path class="cls-3" d="m178.88,135.22c0-14.35,13.12-18.45,30.19-18.45s34.9,2.95,46.11,1.41l-.76,31.39c-7.9-6.66-17.71-11.02-27.01-11.02-3.57,0-6.37,1.41-6.37,3.97,0,8.84,35.67-3.2,35.67,24.85,0,13.07-10.95,21.14-32.99,21.14-17.96,0-28.53-2.69-44.71-2.56l-.51-34.21c7.52,5.89,17.96,10.38,26.88,10.38,4.97,0,7.9-1.92,7.9-4.48,0-8.84-34.39,3.59-34.39-22.42"/>
      <path class="cls-3" d="m304.98,133.68c0,2.31,1.15,3.84,2.8,3.84,1.53,0,3.18-1.28,4.08-3.33,3.44-7.81,9.17-16.14,22.04-16.14s18.09,5.64,20.13,16.78c.51,1.67,1.53,2.69,3.06,2.69,1.78,0,3.18-1.28,4.08-3.33,3.44-7.81,9.17-16.14,22.04-16.14,15.79,0,21.02,9.48,21.02,28.06,0,16.01-2.93,28.44,1.02,41.12h-43.95c2.04-14.99,2.93-26.65,2.93-33.44,0-5.51-1.91-7.56-4.84-7.56s-5.48,2.18-5.48,9.35c0,10.38.64,19.35,2.04,31.64h-43.95c2.04-14.99,2.93-26.65,2.93-33.44,0-5.51-2.29-7.56-5.22-7.56-2.67,0-5.1,2.05-5.1,8.84,0,7.69.64,19.6,2.8,32.15h-43.95c2.17-22.16,1.66-44.45-1.27-66.62h44.58c-.89,4.35-1.78,10.38-1.78,13.07"/>
      <path class="cls-3" d="m413.49,120.61h43.94c-2.55,22.16-2.55,44.46,0,66.62h-43.94c2.55-22.16,2.55-44.46,0-66.62"/>
      <path class="cls-3" d="m564.95,64.82c4.33,0,6.37-3.2,6.37-6.92,0-4.23-2.04-8.07-6.37-8.07s-6.12,3.84-6.12,8.07c0,3.71,1.78,6.92,6.12,6.92m14.39,16.01c8.66,0,18.22-1.28,25.99-3.46-1.65,21.78-19.36,34.21-41.65,34.21-26.37,0-42.03-14.09-42.03-35.74s16.94-36,43.31-36c23.18,0,39.11,9.48,39.11,31.52h-41.02c-3.31,0-4.84,1.03-4.84,3.07,0,3.72,7.26,6.4,21.15,6.4"/>
      <path class="cls-3" d="m466.09,161.18v-9.61c0-5.12-1.53-8.46-5.22-8.46v-21.65c16.18,0,33.25-8.58,41.53-19.22h1.91v10.12c0,6.02,1.79,9.1,6.5,9.1h9.81v21.65h-7.9c-4.71,0-6.5,3.08-6.5,9.1v1.54c0,12.56,3.82,20.88,12.1,20.88,1.53,0,2.8-.13,4.2-.51v.77c-3.31,7.43-12.74,15.76-27.9,15.76-17.58,0-28.53-9.74-28.53-29.47"/>
      <path class="cls-3" d="m512.75,108.12c-3.7-11.88-.95-23.53-.95-38.53,0-17.41-6.68-26.29-21.48-26.29-12.06,0-17.43,7.8-20.65,15.12-.84,1.92-2.39,3.12-3.82,3.12-1.55,0-2.62-1.44-2.62-3.6,0-2.52.83-8.16,1.67-12.24h-41.77c2.14,16.21,2.88,32.5,2.15,48.74,2.99-1.79,6.71-2.82,10.9-2.82,10.74,0,18.25,6.44,18.25,15.66,0,.28-.03.55-.05.83h11.13c-2.03-11.76-2.63-22.93-2.63-30.13,0-6.36,3.34-8.28,5.85-8.28,2.74,0,5.61,1.92,5.61,7.08,0,6.36-.83,17.28-2.74,31.33h20.24c2.84-2.13,5.33-4.5,7.32-7.05l1.2-1.54h7.83v8.59h4.6Z"/>
      <path class="cls-4" d="m421.77,106.01c0-7.17,6.24-11.66,14.39-11.66s14.27,4.48,14.27,11.66c0,6.02-5.48,10.76-14.27,10.76s-14.39-4.74-14.39-10.76"/>
    </g>
  </g>
</svg>