<?xml version="1.0" encoding="utf-8"?>
<!-- Generator: Adobe Illustrator 28.0.0, SVG Export Plug-In . SVG Version: 6.00 Build 0)  -->
<svg version="1.1" id="Layer_2_00000090273124461152226550000008056497824926992261_"
	 xmlns="http://www.w3.org/2000/svg" xmlns:xlink="http://www.w3.org/1999/xlink" x="0px" y="0px" viewBox="0 0 416 268.6"
	 style="enable-background:new 0 0 416 268.6;" xml:space="preserve">
<style type="text/css">
	.st0{fill:#231F20;}
</style>
<g id="Layer_1-2">
	<path class="st0" d="M153.2,120c-0.1,22.3,0.7,45.8,18.5,45.8c14.6,0.1,18.7-19.4,18.8-45.7c0.1-20.7-2.7-46.6-8.3-70.5l87.4,0.3
		c-6.1,18.6-9,36-9.1,51.8c-0.1,47,28.1,64.5,73.9,64.6c25.9,0.1,44.2-10.4,44.2-24.2c0-16.6-10.9-4.9-42.5-5
		c-28.8-0.1-47.3-18.4-47.2-46.7c0.1-31.6,20.4-48.1,54-48c46.1,0.2,73.2,29,73,78.4c-0.3,100-65.3,148-118.3,147.8
		c-43.3-0.1-64.7-27.7-67-70.7c-0.4-8.9-2.4-14.6-11.3-14.6c-8.9,0-11.8,6-14.6,15.3c-12.3,40.5-41.9,69.5-97.4,69.3
		c-49.8-0.2-79.3-33.1-79.1-87.7C28.4,135.8,29.6,51.4,0,0l177.6,0.6C149.9,22.7,153.3,98.1,153.2,120L153.2,120z"/>
</g>
</svg>
